<?xml version="1.0" encoding="utf-8"?>
<!-- Generator: Adobe Illustrator 16.0.0, SVG Export Plug-In . SVG Version: 6.00 Build 0)  -->
<!DOCTYPE svg PUBLIC "-//W3C//DTD SVG 1.1//EN" "http://www.w3.org/Graphics/SVG/1.1/DTD/svg11.dtd" [
	<!ENTITY ns_extend "http://ns.adobe.com/Extensibility/1.0/">
	<!ENTITY ns_ai "http://ns.adobe.com/AdobeIllustrator/10.0/">
	<!ENTITY ns_graphs "http://ns.adobe.com/Graphs/1.0/">
	<!ENTITY ns_vars "http://ns.adobe.com/Variables/1.0/">
	<!ENTITY ns_imrep "http://ns.adobe.com/ImageReplacement/1.0/">
	<!ENTITY ns_sfw "http://ns.adobe.com/SaveForWeb/1.0/">
	<!ENTITY ns_custom "http://ns.adobe.com/GenericCustomNamespace/1.0/">
	<!ENTITY ns_adobe_xpath "http://ns.adobe.com/XPath/1.0/">
]>
<svg version="1.1" id="Layer_1" xmlns:x="&ns_extend;" xmlns:i="&ns_ai;" xmlns:graph="&ns_graphs;"
	 xmlns="http://www.w3.org/2000/svg" xmlns:xlink="http://www.w3.org/1999/xlink" x="0px" y="0px" width="22.84px" height="22px"
	 viewBox="0 0 22.84 22" enable-background="new 0 0 22.84 22" xml:space="preserve">
<metadata>
	<sfw  xmlns="&ns_sfw;">
		<slices></slices>
		<sliceSourceBounds  height="22" width="22.841" y="1489.5" x="1488.08" bottomLeftOrigin="true"></sliceSourceBounds>
	</sfw>
</metadata>
<g>
	<path fill="#D7DFE8" d="M22.048,1.489h-3.938V0.768C18.109,0.361,17.771,0,17.341,0c-0.409,0-0.769,0.336-0.769,0.768V1.49h-4.396
		V0.768C12.177,0.361,11.84,0,11.408,0c-0.432,0-0.771,0.336-0.771,0.768V1.49H6.221V0.768C6.221,0.361,5.884,0,5.452,0
		C5.02,0,4.684,0.336,4.684,0.768V1.49H0.769C0.361,1.489,0,1.825,0,2.258V21.23C0,21.639,0.336,22,0.769,22h21.304
		c0.407,0,0.768-0.336,0.768-0.77V2.258C22.816,1.825,22.48,1.489,22.048,1.489z M21.303,20.487H1.513V3.026h3.171v0.72
		c0,0.408,0.336,0.77,0.769,0.77c0.432,0,0.769-0.336,0.769-0.77v-0.72h4.418v0.72c0,0.408,0.338,0.77,0.77,0.77
		c0.432,0,0.769-0.336,0.769-0.77v-0.72h4.419v0.72c0,0.408,0.336,0.77,0.771,0.77c0.407,0,0.769-0.336,0.769-0.77v-0.72h3.172
		v17.461H21.303z"/>
	<path fill="#D7DFE8" d="M7.949,7.422H5.477c-0.169,0-0.289,0.12-0.289,0.288v1.536c0,0.168,0.12,0.289,0.289,0.289H7.95
		c0.169,0,0.289-0.121,0.289-0.289V7.71C8.238,7.565,8.118,7.422,7.949,7.422z"/>
	<path fill="#D7DFE8" d="M17.341,7.422h-2.474c-0.168,0-0.289,0.12-0.289,0.288v1.536c0,0.168,0.121,0.289,0.289,0.289h2.474
		c0.168,0,0.288-0.121,0.288-0.289V7.71C17.629,7.565,17.509,7.422,17.341,7.422z"/>
	<path fill="#D7DFE8" d="M12.657,7.422H10.16c-0.168,0-0.289,0.12-0.289,0.288v1.536c0,0.168,0.121,0.289,0.289,0.289h2.474
		c0.167,0,0.288-0.121,0.288-0.289V7.71C12.922,7.565,12.801,7.422,12.657,7.422z"/>
	<path fill="#D7DFE8" d="M7.949,11.408H5.477c-0.169,0-0.289,0.119-0.289,0.287v1.539c0,0.168,0.12,0.287,0.289,0.287H7.95
		c0.169,0,0.289-0.119,0.289-0.287v-1.539C8.238,11.527,8.118,11.408,7.949,11.408z"/>
	<path fill="#D7DFE8" d="M17.341,11.408h-2.474c-0.168,0-0.289,0.119-0.289,0.287v1.539c0,0.168,0.121,0.287,0.289,0.287h2.474
		c0.168,0,0.288-0.119,0.288-0.287v-1.539C17.629,11.527,17.509,11.408,17.341,11.408z"/>
	<path fill="#D7DFE8" d="M12.657,11.408H10.16c-0.168,0-0.289,0.119-0.289,0.287v1.539c0,0.168,0.121,0.287,0.289,0.287h2.474
		c0.167,0,0.288-0.119,0.288-0.287v-1.539C12.922,11.527,12.801,11.408,12.657,11.408z"/>
	<path fill="#D7DFE8" d="M7.949,15.395H5.477c-0.169,0-0.289,0.121-0.289,0.289v1.537c0,0.168,0.12,0.287,0.289,0.287H7.95
		c0.169,0,0.289-0.119,0.289-0.287v-1.537C8.238,15.516,8.118,15.395,7.949,15.395z"/>
	<path fill="#D7DFE8" d="M17.341,15.395h-2.474c-0.168,0-0.289,0.121-0.289,0.289v1.537c0,0.168,0.121,0.287,0.289,0.287h2.474
		c0.168,0,0.288-0.119,0.288-0.287v-1.537C17.629,15.516,17.509,15.395,17.341,15.395z"/>
	<path fill="#D7DFE8" d="M12.657,15.395H10.16c-0.168,0-0.289,0.121-0.289,0.289v1.537c0,0.168,0.121,0.287,0.289,0.287h2.474
		c0.167,0,0.288-0.119,0.288-0.287v-1.537C12.922,15.516,12.801,15.395,12.657,15.395z"/>
</g>
</svg>
